<svg xmlns="http://www.w3.org/2000/svg" width="523" height="101" fill="none"><g fill="#2C2C2C" clip-path="url(#a)"><path fill-rule="evenodd" d="M47.371 0a9.873 9.873 0 0 0-9.876 9.876v27.158a9.882 9.882 0 0 0 4.321 8.17 9.841 9.841 0 0 0 5.555 1.706h34.566a9.873 9.873 0 0 0 9.876-9.876V9.876A9.873 9.873 0 0 0 81.937 0H47.37ZM.461 56.786a9.873 9.873 0 0 1 9.876-9.876h34.565c1.968 0 3.8.574 5.343 1.568a9.839 9.839 0 0 1 4.533 8.308v29.628a9.86 9.86 0 0 1-2.411 6.48 9.896 9.896 0 0 1-7.465 3.396H10.337A9.873 9.873 0 0 1 .46 86.414V56.786Zm74.069 0a9.873 9.873 0 0 1 9.876-9.876h34.565a9.873 9.873 0 0 1 9.876 9.876v29.628a9.873 9.873 0 0 1-9.876 9.876H84.406a9.873 9.873 0 0 1-9.876-9.876V56.786Z" clip-rule="evenodd"/><path d="m497.367 63.616-9.332-1.037c-5.669-.83-9.955-2.489-12.859-4.977-2.834-2.49-4.251-6.05-4.251-10.681 0-4.978 1.97-8.918 5.91-11.822 3.941-2.903 9.299-4.355 16.073-4.355 6.568 0 11.891 1.486 15.97 4.46 4.078 2.972 6.394 7.05 6.947 12.235h-12.132c-.484-2.558-1.59-4.459-3.318-5.703-1.729-1.244-4.183-1.867-7.363-1.867-2.903 0-5.219.588-6.948 1.763-1.728 1.106-2.592 2.627-2.592 4.563 0 1.797.588 3.145 1.763 4.044 1.175.83 2.938 1.417 5.288 1.763l9.852 1.037c5.807.691 10.024 2.385 12.65 5.081 2.697 2.627 4.045 6.464 4.045 11.51 0 3.111-.899 5.842-2.696 8.192-1.798 2.282-4.321 4.08-7.57 5.392-3.249 1.245-7.086 1.867-11.511 1.867-7.189 0-12.962-1.486-17.317-4.459-4.355-2.972-6.878-7.017-7.57-12.132h12.859c.553 2.627 1.762 4.562 3.629 5.807 1.936 1.244 4.701 1.866 8.296 1.866 2.972 0 5.357-.553 7.155-1.659 1.797-1.106 2.696-2.627 2.696-4.563 0-3.663-2.558-5.772-7.674-6.325Zm-46.306-9.747c0-4.148-1.036-7.155-3.11-9.022-2.005-1.935-4.736-2.903-8.192-2.903-2.143 0-4.079.484-5.807 1.451-1.729.968-3.111 2.316-4.148 4.045-1.037 1.659-1.556 3.594-1.556 5.807l-3.525-.623c.069-4.562 1.071-8.503 3.007-11.82 2.005-3.32 4.493-5.843 7.466-7.57 3.042-1.798 6.153-2.697 9.333-2.697 5.53 0 10.058 1.797 13.584 5.392 3.595 3.595 5.392 8.71 5.392 15.347v32.665h-12.444V53.869Zm-35.256-21.776h12.443V83.94h-12.443V32.093Zm-58.313 25.719c0-5.53 1.037-10.266 3.111-14.206 2.074-4.01 4.978-7.086 8.711-9.23 3.802-2.211 8.261-3.317 13.376-3.317 5.047 0 9.506 1.14 13.377 3.422 3.941 2.28 7.017 5.426 9.229 9.436 2.212 4.01 3.319 8.607 3.319 13.792v3.318h-39.301V52.42h25.924c-.346-3.664-1.659-6.567-3.941-8.71-2.212-2.213-5.046-3.319-8.503-3.319-4.079 0-7.189 1.418-9.333 4.252-2.143 2.765-3.214 7.155-3.214 13.17 0 5.53 1.106 9.747 3.318 12.65 2.281 2.835 5.565 4.252 9.851 4.252 3.249 0 5.807-.692 7.674-2.074 1.936-1.452 3.145-3.388 3.629-5.807h13.273c-.967 5.945-3.56 10.439-7.777 13.48-4.217 2.973-9.851 4.46-16.902 4.46-5.254 0-9.817-1.072-13.688-3.215-3.872-2.212-6.879-5.323-9.022-9.333-2.074-4.079-3.111-8.883-3.111-14.414Zm-20.195-43.554h13.895V25.56h-13.895V14.258Zm.726 17.836h12.443v51.848h-12.443V32.094Zm-58.07-.001h12.444v68.75h-12.444v-68.75Zm8.503 25.716c0-5.53.864-10.335 2.593-14.413 1.728-4.08 4.148-7.225 7.258-9.437 3.111-2.281 6.741-3.422 10.889-3.422 4.355 0 8.157 1.14 11.406 3.422 3.318 2.212 5.876 5.358 7.674 9.436 1.797 4.08 2.696 8.884 2.696 14.414 0 5.462-.899 10.266-2.696 14.414-1.798 4.079-4.356 7.293-7.674 9.644-3.249 2.281-7.051 3.422-11.406 3.422-4.148 0-7.778-1.14-10.889-3.422-3.11-2.35-5.53-5.565-7.258-9.644-1.729-4.148-2.593-8.952-2.593-14.414Zm29.761 0c0-5.184-1.141-9.194-3.422-12.028-2.212-2.904-5.358-4.356-9.436-4.356-4.079 0-7.259 1.452-9.54 4.356-2.282 2.834-3.422 6.843-3.422 12.028 0 5.254 1.14 9.333 3.422 12.237 2.281 2.903 5.461 4.355 9.54 4.355 4.078 0 7.224-1.452 9.436-4.355 2.281-2.904 3.422-6.983 3.422-12.237Zm-46.46 10.27c0 3.25.173 6.29.519 9.125.345 2.766.829 5.012 1.451 6.74h-12.651c-.553-1.728-1.002-3.733-1.348-6.014a57.796 57.796 0 0 1-.414-6.948V48.688c0-1.59-.45-3.008-1.348-4.252-.899-1.313-2.144-2.35-3.734-3.11-1.52-.761-3.214-1.141-5.081-1.141-6.498 0-10.093 2.8-10.784 8.399h-12.858c.276-3.595 1.417-6.74 3.422-9.436 2.073-2.697 4.839-4.77 8.295-6.222 3.457-1.521 7.432-2.282 11.925-2.282 4.494 0 8.434.83 11.822 2.49 3.387 1.658 6.014 3.974 7.881 6.947 1.935 2.903 2.903 6.29 2.903 10.162V68.08Zm-9.333-4.874c0 4.286-.864 8.088-2.592 11.407-1.659 3.249-4.01 5.841-7.051 7.777-3.042 1.867-6.533 2.8-10.474 2.8-3.318 0-6.291-.691-8.918-2.074-2.557-1.383-4.597-3.284-6.118-5.703-1.451-2.42-2.177-5.185-2.177-8.296 0-4.563 1.348-8.123 4.044-10.68 2.696-2.628 6.567-4.08 11.614-4.356l13.48-.83c1.867-.138 3.18-.553 3.941-1.244.76-.691 1.141-1.728 1.141-3.11V60.82l-13.999.83c-5.047.345-7.57 2.454-7.57 6.325 0 2.143.829 3.872 2.488 5.185 1.729 1.244 3.941 1.867 6.637 1.867 2.35 0 4.459-.553 6.325-1.66 1.936-1.106 3.422-2.557 4.459-4.355 1.107-1.866 1.66-3.975 1.66-6.325l3.11.518Zm-66.748-6.534-9.851-1.037c-6.498-.691-11.51-2.696-15.036-6.014-3.456-3.388-5.185-7.95-5.185-13.688 0-6.291 2.282-11.234 6.844-14.829 4.632-3.664 10.889-5.496 18.769-5.496 7.605 0 13.758 1.867 18.458 5.6 4.77 3.733 7.467 8.883 8.089 15.45h-12.651c-.622-3.663-2.074-6.394-4.355-8.191-2.282-1.798-5.496-2.696-9.644-2.696-3.872 0-7.017.864-9.437 2.592-2.35 1.728-3.525 4.01-3.525 6.844 0 2.281.829 4.079 2.488 5.392 1.66 1.245 4.114 2.074 7.363 2.489l9.125 1.037c14.587 1.66 21.88 8.503 21.88 20.532 0 4.079-1.071 7.639-3.214 10.68-2.074 2.973-5.012 5.29-8.815 6.948-3.802 1.66-8.261 2.489-13.377 2.489-8.226 0-14.863-1.936-19.909-5.807-4.978-3.871-7.847-9.056-8.607-15.554h12.858c.692 3.802 2.316 6.601 4.874 8.399 2.558 1.728 6.187 2.592 10.888 2.592 3.871 0 6.948-.83 9.229-2.488 2.351-1.729 3.526-4.045 3.526-6.948 0-4.701-3.595-7.466-10.785-8.296ZM530.398 18.39v1.954h-3.197v9.28h-2.074v-9.28h-3.197V18.39h8.468Z"/></g><defs><clipPath id="a"><path fill="#fff" d="M0 0h544v101H0z"/></clipPath></defs></svg>