<svg xmlns="http://www.w3.org/2000/svg" width="116" height="28" fill="none"><mask id="a" width="116" height="28" x="0" y="0" maskUnits="userSpaceOnUse" style="mask-type:luminance"><path fill="#fff" d="M116 .5H0v27h116V.5Z"/></mask><g mask="url(#a)"><path fill="#2C2C2C" fill-rule="evenodd" d="M4.182 26.068V14.474h13.532v11.594h3.196V.5h-3.196v10.914H4.182V.5H.986v25.568h3.196Zm28.944.476c3.57 0 5.61-1.36 6.12-2.346v1.87h3.161V8.932h-3.161V19.2c0 .374 0 .816-.069 1.19-.373 2.04-2.89 3.026-5.405 3.026-3.196 0-4.76-1.19-4.76-4.182V8.932h-3.163V19.37c0 4.93 2.38 7.174 7.277 7.174Zm17.67-11.73v11.254h-3.093V8.932h3.094V10.7c.238-.374 1.734-2.448 5.134-2.448 2.754 0 4.862 1.394 5.678 2.448.306-.408 2.448-2.448 5.814-2.448 3.06 0 5.474 1.598 6.086 3.842.272.884.306 2.142.306 2.72v11.254H70.72V14.814c0-1.496-1.122-3.502-4.25-3.502s-4.216 2.006-4.182 3.502v11.254h-3.026V14.814c0-1.496-1.156-3.502-4.284-3.502s-4.216 2.006-4.182 3.502Zm51.002 11.254V15.8c0-.374 0-.816.068-1.19.374-2.04 2.992-3.264 5.508-3.264 2.176 0 4.114.918 4.658 2.652.17.578.238 1.156.238 1.734v10.336h3.162V15.596c0-5.032-2.72-7.378-7.48-7.344-3.57.034-5.61 1.462-6.154 2.516V8.932h-3.162v17.136h3.162Zm-13.706.292c-4.42 0-5.916-1.428-6.664-2.346v1.87h-3.094V15.446c0-5.61 2.788-7.174 7.412-7.378 6.12 0 8.364 2.822 8.466 5.44h-3.06c-.442-1.496-1.87-2.346-4.828-2.346-3.706 0-4.862 1.054-4.862 3.876l6.63.408c4.148.272 6.902 1.088 6.902 5.032 0 2.584-1.938 5.882-6.902 5.882Zm-1.19-3.094c4.488 0 4.964-1.836 4.964-2.788 0-1.632-.85-2.074-4.114-2.312l-.643-.037c-1.227-.073-3.727-.22-5.613-.303v1.768c0 2.346 2.516 3.672 5.406 3.672Zm7.432-21.198h-16v3h16v-3Z" clip-rule="evenodd"/></g></svg>