<svg xmlns="http://www.w3.org/2000/svg" width="409" height="226" fill="none"><path fill="#000" d="M207.785 221.76V4.16h35.84v217.6h-35.84Zm141.44 0V4.16h35.84v217.6h-35.84Zm-115.52-97.28V95.36h122.56v29.12h-122.56ZM41.28 57.92c0 7.253 1.813 13.12 5.44 17.6 3.627 4.267 8.64 7.68 15.04 10.24 6.4 2.347 13.44 4.373 21.12 6.08 7.893 1.493 16 3.093 24.32 4.8 8.32 1.493 16.32 3.627 24 6.4 7.893 2.56 14.933 6.187 21.12 10.88 6.4 4.48 11.413 10.347 15.04 17.6 3.84 7.253 5.76 16.427 5.76 27.52 0 14.293-3.627 26.453-10.88 36.48-7.04 10.027-16.747 17.6-29.12 22.72-12.373 5.12-26.56 7.68-42.56 7.68-16 0-30.293-2.453-42.88-7.36-12.373-4.907-22.72-12.373-31.04-22.4C8.533 186.133 2.987 173.547 0 158.4h37.44c3.2 12.373 9.28 21.867 18.24 28.48 8.96 6.4 20.693 9.6 35.2 9.6 14.933 0 26.24-2.987 33.92-8.96 7.68-5.973 11.52-13.867 11.52-23.68 0-7.68-1.813-13.867-5.44-18.56-3.627-4.907-8.64-8.64-15.04-11.2-6.4-2.773-13.547-5.013-21.44-6.72a577.95 577.95 0 0 0-24-5.44 225.99 225.99 0 0 1-24.32-6.4c-7.68-2.56-14.72-5.973-21.12-10.24C18.773 100.8 13.76 95.04 9.92 88c-3.627-7.04-5.44-16.107-5.44-27.2 0-10.88 2.987-20.907 8.96-30.08 5.973-9.387 14.613-16.853 25.92-22.4C50.88 2.773 64.96 0 81.6 0c14.293 0 27.413 2.453 39.36 7.36 12.16 4.693 22.293 12.053 30.4 22.08 8.107 9.813 13.44 22.72 16 38.72h-38.08c-2.987-13.44-8.64-23.253-16.96-29.44-8.32-6.187-18.88-9.28-31.68-9.28-12.373 0-22.08 2.667-29.12 8-6.827 5.12-10.24 11.947-10.24 20.48ZM401.8 17.76c-1.012 0-1.944-.176-2.796-.529a6.91 6.91 0 0 1-2.222-1.455 6.649 6.649 0 0 1-1.463-2.21c-.346-.857-.519-1.789-.519-2.796 0-1.02.173-1.953.519-2.797a6.518 6.518 0 0 1 3.685-3.684c.852-.353 1.784-.529 2.796-.529 1.012 0 1.944.176 2.796.529a6.716 6.716 0 0 1 2.241 1.474 6.21 6.21 0 0 1 1.445 2.21c.345.844.518 1.776.518 2.797 0 1.007-.173 1.933-.518 2.777a6.44 6.44 0 0 1-1.445 2.21 6.716 6.716 0 0 1-2.241 1.474c-.852.353-1.784.529-2.796.529Zm0-.87c.877 0 1.673-.15 2.389-.453a5.702 5.702 0 0 0 1.907-1.284 5.837 5.837 0 0 0 1.26-1.946 6.528 6.528 0 0 0 .444-2.438c0-.869-.148-1.675-.444-2.418a5.793 5.793 0 0 0-1.26-1.965 5.702 5.702 0 0 0-1.907-1.285c-.716-.314-1.512-.472-2.389-.472a5.96 5.96 0 0 0-2.389.472 5.702 5.702 0 0 0-1.907 1.285 5.934 5.934 0 0 0-1.241 1.965 6.476 6.476 0 0 0-.444 2.418c0 .882.148 1.695.444 2.438a5.98 5.98 0 0 0 1.241 1.946 5.702 5.702 0 0 0 1.907 1.284 6.175 6.175 0 0 0 2.389.454Zm3.704-7.538h-2.167c-.099-.365-.278-.648-.537-.85-.259-.214-.58-.32-.963-.32-.555 0-.981.232-1.278.698-.296.454-.444 1.083-.444 1.89 0 .806.148 1.435.444 1.889.297.453.723.68 1.278.68.358 0 .667-.1.926-.302.272-.202.457-.473.556-.813h2.166c-.197.957-.623 1.67-1.278 2.135-.642.454-1.407.68-2.296.68-1.222 0-2.185-.377-2.889-1.133-.703-.769-1.055-1.814-1.055-3.136 0-1.323.345-2.369 1.037-3.137.703-.78 1.666-1.171 2.889-1.171.889 0 1.666.245 2.333.737.679.478 1.105 1.196 1.278 2.153Z"/></svg>