<svg xmlns="http://www.w3.org/2000/svg" width="63" height="14" fill="none"><g clip-path="url(#a)"><path fill="#000" d="M10.729 13.119c.39 0 .952-.034 1.36-.12v-.356c-.714 0-1.343-.493-2.057-1.513L7.295 7.169c1.598-.51 2.873-1.598 2.873-3.468 0-2.091-1.7-3.077-4.76-3.077H.46V.98c1.207.102 1.547.238 1.547 1.24v9.18c0 1.004-.34 1.14-1.547 1.242V13h4.76v-.357c-1.14-.102-1.48-.238-1.48-1.241v-3.91h1.21c.493 0 .714.119.918.425L8.4 11.793c.68 1.054 1.292 1.326 2.329 1.326ZM5.22 6.914c-.357 0-1.088-.051-1.48-.136V1.236h1.14c2.244 0 3.45.935 3.45 2.72 0 1.7-1.02 2.958-3.11 2.958Zm12.862 6.29c3.672 0 6.137-2.567 6.137-6.477 0-3.961-2.414-6.307-6.001-6.307-3.672 0-6.154 2.567-6.154 6.477 0 3.96 2.414 6.307 6.018 6.307Zm.17-.595c-2.567 0-4.25-2.244-4.25-5.933 0-3.52 1.479-5.661 4.029-5.661 2.567 0 4.267 2.244 4.267 5.933 0 3.519-1.496 5.66-4.046 5.66Zm11.077.39v-.356c-1.258-.102-1.683-.527-1.683-1.581V2.868L35.059 13h.935V2.562c0-1.054.306-1.48 1.462-1.581V.624h-3.961V.98c1.275.102 1.683.527 1.683 1.58v7.753L28.157.624h-2.941V.98c1.156.102 1.632.578 1.632 1.58v8.5c0 1.055-.374 1.48-1.632 1.582V13h4.114Zm14.052 0c4.335 0 6.868-2.328 6.868-6.323 0-3.927-2.533-6.052-6.58-6.052h-5.422V.98c1.207.102 1.547.238 1.547 1.24v9.18c0 1.004-.34 1.14-1.547 1.242V13h5.134Zm.204-.611c-.986 0-1.632-.051-2.057-.153v-11h1.785c3.179 0 4.998 2.024 4.998 5.594 0 3.672-1.581 5.559-4.726 5.559Zm10.55.612v-.357c-1.428-.12-1.972-.561-1.547-1.632l.748-1.921h5.066l.85 2.21c.357.935.102 1.224-1.326 1.343V13h4.658v-.357c-.901-.12-1.14-.527-1.462-1.343L56.923.624h-1.087l-4.182 10.608c-.323.833-.612 1.292-1.513 1.41V13h3.995Zm4.012-4.54h-4.573l2.296-5.88 2.278 5.882Z"/></g><defs><clipPath id="a"><path fill="#fff" d="M0 0h63v14H0z"/></clipPath></defs></svg>