<svg xmlns="http://www.w3.org/2000/svg" width="114" height="37" fill="none"><path fill="#2C2C2C" d="M24.164 23.17c0 4.08-1.08 7.23-3.24 9.45-2.13 2.22-5.04 3.33-8.73 3.33-2.28 0-4.32-.495-6.12-1.485-1.77-.99-3.165-2.43-4.185-4.32C.869 28.225.359 25.9.359 23.17c0-4.08 1.065-7.215 3.195-9.405 2.13-2.19 5.055-3.285 8.775-3.285 2.31 0 4.35.495 6.12 1.485 1.77.99 3.165 2.43 4.185 4.32 1.02 1.86 1.53 4.155 1.53 6.885Zm-16.965 0c0 2.43.39 4.275 1.17 5.535.81 1.23 2.115 1.845 3.915 1.845 1.77 0 3.045-.615 3.825-1.845.81-1.26 1.215-3.105 1.215-5.535s-.405-4.245-1.215-5.445c-.78-1.23-2.07-1.845-3.87-1.845-1.77 0-3.06.615-3.87 1.845-.78 1.2-1.17 3.015-1.17 5.445Zm33.756-12.69c.33 0 .72.015 1.17.045.45.03.81.075 1.08.135l-.495 6.3c-.21-.06-.525-.105-.945-.135a6.9 6.9 0 0 0-1.035-.09c-1.14 0-2.235.21-3.285.63A5.48 5.48 0 0 0 34.88 19.3c-.63.9-.945 2.13-.945 3.69V35.5H27.23V10.93h5.085l.99 4.14h.315c.72-1.26 1.71-2.34 2.97-3.24 1.26-.9 2.715-1.35 4.365-1.35Zm7.61-9.18c.99 0 1.845.24 2.565.72.72.45 1.08 1.305 1.08 2.565 0 1.23-.36 2.085-1.08 2.565-.72.48-1.575.72-2.565.72-1.02 0-1.89-.24-2.61-.72-.69-.48-1.035-1.335-1.035-2.565 0-1.26.345-2.115 1.035-2.565.72-.48 1.59-.72 2.61-.72Zm3.33 9.63V35.5H45.19V10.93h6.705Zm52.899-.45c2.64 0 4.755.72 6.345 2.16 1.59 1.41 2.385 3.69 2.385 6.84V35.5h-6.705V21.146c0-1.77-.315-3.09-.945-3.96-.63-.9-1.635-1.35-3.015-1.35-2.04 0-3.435.706-4.185 2.116-.75 1.38-1.125 3.375-1.125 5.985V35.5h-6.705V10.93h5.13l.9 3.15h.36a6.777 6.777 0 0 1 3.195-2.745c1.38-.57 2.835-.856 4.365-.856Z"/><path fill="#2C2C2C" fill-rule="evenodd" d="M76.334 17.5h-9a6 6 0 0 0 0 12h9a6 6 0 0 0 0-12Zm-9-6c-6.627 0-12 5.373-12 12s5.373 12 12 12h9c6.627 0 12-5.373 12-12s-5.373-12-12-12h-9Z" clip-rule="evenodd"/></svg>