<svg xmlns="http://www.w3.org/2000/svg" width="596" height="551" fill="none"><path fill="#1A1A1A" d="m144.5 262 32.442 99.847h104.986l-84.935 61.709 32.442 99.847-84.935-61.709-84.935 61.709 32.442-99.847-84.935-61.709h104.986L144.5 262Zm307 0 32.442 99.847h104.986l-84.935 61.709 32.442 99.847-84.935-61.709-84.935 61.709 32.442-99.847-84.935-61.709h104.986L451.5 262ZM306.5 0l32.442 99.847h104.986l-84.935 61.709 32.442 99.847-84.935-61.709-84.935 61.709 32.442-99.847-84.935-61.709h104.986L306.5 0Z"/></svg>