<svg xmlns="http://www.w3.org/2000/svg" width="576" height="178" fill="none"><path fill="#1D1D1D" d="M508.577 52.8c-5.333 0-8.853.854-10.56 2.56-1.493 1.494-2.24 3.627-2.24 6.4 0 2.987 2.56 5.974 7.68 8.96a797.013 797.013 0 0 1 17.28 9.28c6.4 3.414 12.16 7.254 17.28 11.52 5.334 4.267 8 9.494 8 15.68 0 3.2-1.066 6.507-3.2 9.92-1.92 3.2-4.906 6.187-8.96 8.96-4.053 2.56-9.066 4.8-15.04 6.72-5.76 1.707-12.48 2.56-20.16 2.56-10.24 0-18.986-1.6-26.24-4.8-7.253-3.2-12.266-6.72-15.04-10.56-2.773-4.053-2.986-7.68-.64-10.88 2.347-3.2 7.894-4.8 16.64-4.8 5.76 0 9.6 1.067 11.52 3.2 1.92 2.134 3.2 4.587 3.84 7.36.854 2.56 1.814 4.907 2.88 7.04 1.067 2.134 3.84 3.2 8.32 3.2 5.547 0 9.067-.746 10.56-2.24 1.707-1.706 2.56-3.946 2.56-6.72 0-3.413-2.666-6.4-8-8.96-5.12-2.773-10.88-5.76-17.28-8.96-6.4-3.2-12.266-6.826-17.6-10.88-5.12-4.266-7.68-9.493-7.68-15.68 0-3.2 1.067-6.506 3.2-9.92 2.134-3.626 5.12-6.826 8.96-9.6 4.054-2.986 8.96-5.333 14.72-7.04 5.974-1.92 12.8-2.88 20.48-2.88 10.454 0 19.307 1.707 26.56 5.12 7.254 3.2 12.267 6.72 15.04 10.56 2.774 3.84 2.987 7.467.64 10.88-2.346 3.2-7.893 4.8-16.64 4.8-5.76 0-9.6-1.066-11.52-3.2-1.92-2.133-3.306-4.48-4.16-7.04-.64-2.773-1.6-5.226-2.88-7.36-1.066-2.133-3.84-3.2-8.32-3.2Z"/><path fill="#1D1D1D" d="M402.595 54.4c0-.427.426-.64 1.28-.64 7.893 0 14.4-.534 19.52-1.6 5.333-1.28 9.6-2.667 12.8-4.16 3.2-1.494 5.546-2.774 7.04-3.84 1.493-1.28 2.453-1.92 2.88-1.92 1.066 0 2.133 1.066 3.2 3.2 1.28 1.92 1.92 3.306 1.92 4.16 0 .426-.427 2.773-1.28 7.04-.854 4.266-1.814 9.28-2.88 15.04-.854 5.76-1.707 11.626-2.56 17.6-.854 5.973-1.28 10.773-1.28 14.4 0 3.2.746 5.226 2.24 6.08a22.524 22.524 0 0 0 5.12 1.28c1.92.213 3.626.533 5.12.96 1.706.213 2.56 1.28 2.56 3.2 0 2.133-.854 4.373-2.56 6.72-1.707 2.346-4.054 4.586-7.04 6.72-2.774 1.92-6.08 3.52-9.92 4.8-3.627 1.28-7.467 1.92-11.52 1.92-3.414 0-6.4-.534-8.96-1.6-2.347-1.28-4.267-2.774-5.76-4.48-1.494-1.707-2.667-3.52-3.52-5.44-.64-2.134-.96-4.16-.96-6.08 0-4.907.213-9.28.64-13.12a396.95 396.95 0 0 1 1.92-11.2 100.83 100.83 0 0 0 1.92-10.56c.64-3.414.96-6.827.96-10.24 0-1.28-.534-2.347-1.6-3.2-1.067-1.067-2.347-1.92-3.84-2.56-1.28-.64-2.56-1.067-3.84-1.28-1.28-.427-2.027-.64-2.24-.64-.854 0-1.28-.32-1.28-.96 0-.214.106-.854.32-1.92l.64-3.2c.213-1.067.426-2.027.64-2.88l.32-1.6Zm3.2-37.12c-.427-.427-.96-.854-1.6-1.28-.427-.427-.64-.96-.64-1.6 0-1.92 2.026-4.374 6.08-7.36 4.266-3.2 10.453-4.8 18.56-4.8 5.546 0 9.066 2.133 10.56 6.4 1.493 4.053 1.6 8.64.32 13.76-1.067 4.906-3.2 9.493-6.4 13.76-2.987 4.053-6.294 6.08-9.92 6.08-1.707 0-2.774-.427-3.2-1.28-.214-1.067-.64-2.56-1.28-4.48-.427-1.92-1.494-4.48-3.2-7.68-1.707-3.2-4.8-7.04-9.28-11.52Zm-2.243 31.68c0 1.28-.746 4.374-2.24 9.28-1.28 4.907-3.306 10.56-6.08 16.96-2.773 6.4-6.08 13.12-9.92 20.16-3.84 7.04-8.213 13.547-13.12 19.52-4.906 5.974-10.346 10.88-16.32 14.72-5.76 3.84-11.946 5.76-18.56 5.76-1.92 0-4.266-.106-7.04-.32a26.94 26.94 0 0 1-8-2.56c-2.56-1.493-4.906-3.52-7.04-6.08-1.92-2.773-3.093-6.506-3.52-11.2-.213-.853-.32-2.24-.32-4.16 0-6.186.747-12.053 2.24-17.6 1.494-5.546 2.454-11.52 2.88-17.92v-2.88c0-1.28-.533-2.346-1.6-3.2-1.066-1.066-2.346-1.92-3.84-2.56-1.28-.64-2.56-1.066-3.84-1.28-1.28-.426-2.026-.64-2.24-.64-.853 0-1.28-.32-1.28-.96 0-.213.107-.853.32-1.92l.64-3.2c.214-1.066.427-2.026.64-2.88l.32-1.6c0-.426.427-.64 1.28-.64 2.987 0 5.76-.106 8.32-.32 2.56-.213 4.907-.533 7.04-.96 5.547-.853 9.92-1.92 13.12-3.2 3.414-1.28 6.187-2.56 8.32-3.84a167.121 167.121 0 0 0 3.52-2.24c.854-.64 1.494-.96 1.92-.96 1.067 0 2.134 1.067 3.2 3.2 1.28 1.92 1.92 3.307 1.92 4.16 0 .427-.426 2.774-1.28 7.04-.853 4.267-1.813 9.28-2.88 15.04-.853 5.76-1.706 11.627-2.56 17.6-.853 5.974-1.28 10.774-1.28 14.4 0 .854.107 2.134.32 3.84.214 1.707 1.28 2.56 3.2 2.56 2.134 0 4.8-1.6 8-4.8 3.2-3.2 6.294-6.933 9.28-11.2 2.987-4.266 5.547-8.533 7.68-12.8 2.134-4.266 3.2-7.466 3.2-9.6 0-1.28-.426-2.346-1.28-3.2-.853-.853-1.92-1.6-3.2-2.24a43.159 43.159 0 0 0-2.88-1.6c-.853-.64-1.28-1.28-1.28-1.92 0-.426.107-1.173.32-2.24.214-1.28.427-2.453.64-3.52.427-1.28.854-2.346 1.28-3.2.427-1.066.747-1.6.96-1.6 2.347 0 4.907-.533 7.68-1.6a139.945 139.945 0 0 0 7.68-3.2c2.347-1.28 4.374-2.453 6.08-3.52 1.92-1.066 3.094-1.6 3.52-1.6 1.28 0 2.24.427 2.88 1.28.427.427 1.067 1.28 1.92 2.56.854 1.28 1.28 2.24 1.28 2.88Z"/><path fill="#1D1D1D" d="M262.815 42.24c1.067 0 2.133 1.067 3.2 3.2 1.28 2.133 1.92 3.627 1.92 4.48v-.64c.213-.853.213-.64 0 .64 2.133-2.133 5.227-4.8 9.28-8 4.053-3.2 9.387-4.8 16-4.8 5.76 0 9.6 1.707 11.52 5.12 1.92 3.413 2.453 7.147 1.6 11.2-.64 3.84-2.453 7.467-5.44 10.88-2.773 3.413-6.187 5.12-10.24 5.12-2.987 0-5.547-.96-7.68-2.88s-3.627-4.053-4.48-6.4c-.853-2.56-1.067-4.8-.64-6.72.64-1.92 2.027-2.88 4.16-2.88-1.067 0-2.667 1.067-4.8 3.2-1.92 1.92-3.947 4.267-6.08 7.04a79.97 79.97 0 0 0-5.12 7.68c-1.493 2.347-2.24 3.84-2.24 4.48a399.9 399.9 0 0 0-2.88 16.96c-.64 5.76-.96 10.453-.96 14.08 0 3.2.747 5.227 2.24 6.08 1.707.853 3.413 1.387 5.12 1.6 1.92 0 3.627.213 5.12.64 1.707.213 2.56 1.28 2.56 3.2 0 2.133-.853 4.373-2.56 6.72-1.707 2.347-4.053 4.48-7.04 6.4-2.773 1.92-6.08 3.52-9.92 4.8-3.627 1.28-7.467 1.92-11.52 1.92-3.413 0-6.4-.533-8.96-1.6-2.347-1.067-4.373-2.453-6.08-4.16-1.493-1.707-2.56-3.52-3.2-5.44-.64-2.133-.96-4.053-.96-5.76 0-4.907.213-9.387.64-13.44.64-4.053 1.28-7.786 1.92-11.2a100.821 100.821 0 0 0 1.92-10.56c.64-3.413.96-6.827.96-10.24 0-1.28-.533-2.346-1.6-3.2-1.067-1.067-2.347-1.92-3.84-2.56-1.28-.64-2.56-1.067-3.84-1.28-1.28-.427-2.027-.64-2.24-.64-.853 0-1.28-.32-1.28-.96 0-.213.107-.853.32-1.92l.64-3.2a62.33 62.33 0 0 1 .64-2.88l.32-1.6c0-.427.427-.64 1.28-.64 7.893 0 14.4-.64 19.52-1.92 5.333-1.28 9.6-2.56 12.8-3.84 3.2-1.493 5.547-2.88 7.04-4.16 1.493-1.28 2.453-1.92 2.88-1.92Z"/><path fill="#1D1D1D" d="M183.208 42.24c10.24 0 17.28 1.814 21.12 5.44 3.84 3.414 5.973 7.68 6.4 12.8.426 5.12 0 10.774-1.28 16.96-1.28 5.974-1.92 11.52-1.92 16.64 0 6.187.853 10.347 2.56 12.48 1.706 2.134 3.52 3.414 5.44 3.84 2.133.427 4.053.64 5.76.64 1.706 0 2.56.96 2.56 2.88s-.64 4.16-1.92 6.72c-1.28 2.56-3.2 4.907-5.76 7.04-2.56 2.134-5.76 3.947-9.6 5.44-3.84 1.494-8.214 2.24-13.12 2.24-7.254 0-12.16-1.6-14.72-4.8-2.56-3.413-3.734-7.786-3.52-13.12-2.56 4.267-6.294 8.32-11.2 12.16-4.694 3.84-10.774 5.76-18.24 5.76-8.32 0-14.827-2.24-19.52-6.72-4.48-4.693-7.254-10.453-8.32-17.28-1.067-7.04-.427-14.506 1.92-22.4 2.346-8.106 6.293-15.573 11.84-22.4 5.546-7.04 12.586-12.8 21.12-17.28 8.746-4.693 18.88-7.04 30.4-7.04Zm-3.52 50.24a402.124 402.124 0 0 0 2.88-13.76c1.066-4.48 1.6-8.746 1.6-12.8 0-3.84-.64-6.506-1.92-8-1.067-1.493-2.88-2.24-5.44-2.24-2.987 0-6.08 1.28-9.28 3.84-3.2 2.56-6.187 5.76-8.96 9.6-2.56 3.84-4.694 8-6.4 12.48-1.707 4.48-2.667 8.64-2.88 12.48 0 3.84.96 7.04 2.88 9.6 2.133 2.56 5.546 3.84 10.24 3.84 2.346 0 4.48-.64 6.4-1.92a36.763 36.763 0 0 0 5.12-4.8 159.946 159.946 0 0 0 3.84-5.12c1.066-1.706 1.706-2.773 1.92-3.2Z"/><path fill="#1D1D1D" d="M146.6.32h.64l.32.32c.213.213.32.426.32.64-.213.213-.427 1.066-.64 2.56 0 1.493-.107 2.453-.32 2.88-.213.853-.747 1.28-1.6 1.28-.213 0-.96.32-2.24.96-1.067.64-2.347 1.813-3.84 3.52-1.493 1.493-3.093 3.733-4.8 6.72-1.707 2.986-3.2 6.72-4.48 11.2-.64 2.346-1.387 6.827-2.24 13.44a2234.09 2234.09 0 0 1-2.88 20.8c-1.707 16.64-3.733 31.893-6.08 45.76-2.133 13.866-5.547 25.813-10.24 35.84-4.693 9.813-11.093 17.493-19.2 23.04-8.107 5.546-18.88 8.32-32.32 8.32-13.867 0-25.067-2.347-33.6-7.04-8.32-4.907-14.293-10.88-17.92-17.92C1.853 145.386.36 137.6 1 129.28c.64-8.32 3.093-16 7.36-23.04 4.053-7.253 9.707-13.227 16.96-17.92 7.253-4.907 15.68-7.36 25.28-7.36 7.04 0 12.587 1.28 16.64 3.84 4.053 2.347 6.933 5.333 8.64 8.96 1.92 3.413 2.773 7.253 2.56 11.52-.213 4.266-1.173 8.213-2.88 11.84-1.493 3.413-3.733 6.4-6.72 8.96-2.773 2.347-5.867 3.52-9.28 3.52-5.12 0-8.427-1.813-9.92-5.44-1.28-3.627-1.813-7.574-1.6-11.84.427-4.267 1.173-8.214 2.24-11.84 1.067-3.627 1.387-5.44.96-5.44-3.413 0-6.4 1.813-8.96 5.44-2.347 3.413-4.267 7.787-5.76 13.12-1.28 5.12-1.92 10.773-1.92 16.96 0 5.973.64 11.626 1.92 16.96 1.493 5.12 3.733 9.493 6.72 13.12 2.987 3.413 6.827 5.12 11.52 5.12 4.267 0 8-1.814 11.2-5.44 3.413-3.627 6.4-8.214 8.96-13.76 2.773-5.76 5.12-12.16 7.04-19.2 1.92-7.254 3.52-14.4 4.8-21.44 1.493-7.04 2.667-13.654 3.52-19.84 1.067-6.4 1.92-11.627 2.56-15.68l1.92-12.16a377.95 377.95 0 0 0 1.6-11.84c.64-3.84 1.067-7.147 1.28-9.92.427-2.773.64-4.8.64-6.08 0-6.4-.107-10.88-.32-13.44 0-2.56-1.173-3.84-3.52-3.84-6.827.853-12.267 2.667-16.32 5.44-3.84 2.56-6.187 4.907-7.04 7.04 4.48 1.28 7.68 3.733 9.6 7.36 1.92 3.627 2.667 7.36 2.24 11.2-.427 3.84-2.133 7.36-5.12 10.56-2.987 2.986-7.253 4.48-12.8 4.48-5.12 0-9.493-1.387-13.12-4.16-3.627-2.773-6.187-6.294-7.68-10.56-1.493-4.267-1.92-8.853-1.28-13.76.853-4.907 2.987-9.493 6.4-13.76 3.627-4.48 8.747-8.214 15.36-11.2C71.293 2.56 79.72.746 89.96.32h56.64Z"/><path fill="#000" d="M560.47 50.5c0-1.035.252-1.98.757-2.831a5.721 5.721 0 0 1 2.036-2.036 5.452 5.452 0 0 1 2.832-.758 5.4 5.4 0 0 1 2.481.578 5.304 5.304 0 0 1 1.894 1.581c.498.663.808 1.414.928 2.254h-2.292c-.126-.65-.477-1.18-1.051-1.591a3.256 3.256 0 0 0-1.96-.625 3.3 3.3 0 0 0-1.724.464c-.517.31-.931.723-1.24 1.24a3.29 3.29 0 0 0-.464 1.724c0 .631.154 1.206.464 1.724.309.517.723.93 1.24 1.24a3.29 3.29 0 0 0 1.724.464c.732 0 1.351-.205 1.856-.615.511-.417.833-.95.966-1.6h2.291a5.175 5.175 0 0 1-.88 2.262 5.035 5.035 0 0 1-1.8 1.572c-.726.385-1.537.578-2.433.578a5.452 5.452 0 0 1-2.832-.758 5.721 5.721 0 0 1-2.036-2.036c-.505-.852-.757-1.796-.757-2.831Zm5.53 10a9.786 9.786 0 0 1-3.883-.776 10.204 10.204 0 0 1-3.191-2.15 10.336 10.336 0 0 1-2.159-3.191c-.518-1.206-.773-2.5-.767-3.883a9.841 9.841 0 0 1 .786-3.883 10.22 10.22 0 0 1 2.159-3.181 10.008 10.008 0 0 1 3.182-2.16A9.713 9.713 0 0 1 566 40.5c1.383 0 2.677.259 3.883.776a9.861 9.861 0 0 1 3.181 2.16 10.076 10.076 0 0 1 2.15 3.181c.518 1.206.78 2.5.786 3.883.006 1.383-.249 2.677-.767 3.883a10.046 10.046 0 0 1-5.341 5.34A9.802 9.802 0 0 1 566 60.5Zm0-2.197c1.08 0 2.093-.202 3.04-.606a7.852 7.852 0 0 0 4.166-4.157 7.532 7.532 0 0 0 .597-3.03 7.821 7.821 0 0 0-2.292-5.53 7.855 7.855 0 0 0-2.481-1.677 7.591 7.591 0 0 0-3.03-.606c-1.073 0-2.08.202-3.021.606a7.8 7.8 0 0 0-2.481 1.686 7.965 7.965 0 0 0-1.685 2.49c-.404.94-.61 1.95-.616 3.03a7.508 7.508 0 0 0 .597 3.021 7.843 7.843 0 0 0 1.676 2.481 8.113 8.113 0 0 0 2.49 1.686c.947.404 1.96.606 3.04.606Z"/></svg>