<svg xmlns="http://www.w3.org/2000/svg" width="58" height="17" fill="none"><g fill="#2C2C2C" clip-path="url(#a)"><path d="M.525 17V0h4v17h-4Zm7.75 0H3.45v-3.175h4.725c.75 0 1.325-.183 1.725-.55.4-.367.6-.858.6-1.475 0-.583-.208-1.058-.625-1.425C9.458 9.992 8.85 9.8 8.05 9.8h-4.6V6.9h3.8c.767 0 1.333-.167 1.7-.5.383-.35.575-.792.575-1.325 0-.583-.192-1.042-.575-1.375-.367-.35-.908-.525-1.625-.525H3.45V0h3.975c1.917 0 3.433.442 4.55 1.325 1.117.867 1.675 2.033 1.675 3.5 0 .967-.3 1.775-.9 2.425-.583.633-1.375 1.058-2.375 1.275v-.85c1.35.2 2.392.675 3.125 1.425.733.733 1.1 1.692 1.1 2.875 0 1.6-.55 2.842-1.65 3.725-1.1.867-2.658 1.3-4.675 1.3Zm8.583-7.175V6.55h22.45v3.275h-22.45ZM42.358 17V0h4v17h-4Zm3.475-8.325L52.608 0h4.6l-6.95 8.675h-4.425Zm0 0 4.275-.825 7.5 9.15h-5l-6.775-8.325Z"/></g><defs><clipPath id="a"><path fill="#fff" d="M0 0h58v17H0z"/></clipPath></defs></svg>