<svg xmlns="http://www.w3.org/2000/svg" width="174" height="226" fill="none"><path fill="#000" d="M41.48 57.92c0 7.253 1.813 13.12 5.44 17.6 3.627 4.267 8.64 7.68 15.04 10.24 6.4 2.347 13.44 4.373 21.12 6.08 7.893 1.493 16 3.093 24.32 4.8 8.32 1.493 16.32 3.627 24 6.4 7.893 2.56 14.933 6.187 21.12 10.88 6.4 4.48 11.413 10.347 15.04 17.6 3.84 7.253 5.76 16.427 5.76 27.52 0 14.293-3.627 26.453-10.88 36.48-7.04 10.027-16.747 17.6-29.12 22.72-12.373 5.12-26.56 7.68-42.56 7.68-16 0-30.293-2.453-42.88-7.36-12.373-4.907-22.72-12.373-31.04-22.4C8.733 186.133 3.187 173.547.2 158.4h37.44c3.2 12.373 9.28 21.867 18.24 28.48 8.96 6.4 20.693 9.6 35.2 9.6 14.933 0 26.24-2.987 33.92-8.96 7.68-5.973 11.52-13.867 11.52-23.68 0-7.68-1.813-13.867-5.44-18.56-3.627-4.907-8.64-8.64-15.04-11.2-6.4-2.773-13.547-5.013-21.44-6.72a577.95 577.95 0 0 0-24-5.44 225.99 225.99 0 0 1-24.32-6.4c-7.68-2.56-14.72-5.973-21.12-10.24-6.187-4.48-11.2-10.24-15.04-17.28-3.627-7.04-5.44-16.107-5.44-27.2 0-10.88 2.987-20.907 8.96-30.08 5.973-9.387 14.613-16.853 25.92-22.4C51.08 2.773 65.16 0 81.8 0c14.293 0 27.413 2.453 39.36 7.36 12.16 4.693 22.293 12.053 30.4 22.08 8.107 9.813 13.44 22.72 16 38.72h-38.08c-2.987-13.44-8.64-23.253-16.96-29.44-8.32-6.187-18.88-9.28-31.68-9.28-12.373 0-22.08 2.667-29.12 8-6.827 5.12-10.24 11.947-10.24 20.48ZM165.5 5.25c0-.544.133-1.04.398-1.487a2.998 2.998 0 0 1 1.069-1.068 2.86 2.86 0 0 1 1.486-.398 2.836 2.836 0 0 1 2.297 1.133c.262.348.424.743.487 1.184h-1.203a1.304 1.304 0 0 0-.552-.836 1.706 1.706 0 0 0-1.029-.328c-.331 0-.633.081-.905.244-.272.162-.489.38-.651.651a1.735 1.735 0 0 0-.244.905c0 .331.082.633.244.905.162.272.379.489.651.651.272.163.574.244.905.244.385 0 .709-.108.975-.323.268-.22.437-.5.507-.84h1.203c-.063.44-.217.836-.463 1.188-.245.348-.56.623-.944.825a2.683 2.683 0 0 1-1.278.303 2.86 2.86 0 0 1-1.486-.398 2.998 2.998 0 0 1-1.069-1.068 2.863 2.863 0 0 1-.398-1.487Zm2.903 5.25a5.133 5.133 0 0 1-2.038-.408 5.35 5.35 0 0 1-1.675-1.128 5.415 5.415 0 0 1-1.134-1.676 5.054 5.054 0 0 1-.403-2.038 5.181 5.181 0 0 1 .413-2.038 5.354 5.354 0 0 1 1.134-1.67 5.243 5.243 0 0 1 1.67-1.134A5.1 5.1 0 0 1 168.403 0a5.178 5.178 0 0 1 3.709 1.541 5.29 5.29 0 0 1 1.129 1.67c.272.634.409 1.313.412 2.039a5.053 5.053 0 0 1-.402 2.038 5.271 5.271 0 0 1-2.804 2.804 5.152 5.152 0 0 1-2.044.408Zm0-1.153c.567 0 1.099-.106 1.596-.319a4.122 4.122 0 0 0 2.188-2.182 3.958 3.958 0 0 0 .313-1.591 4.12 4.12 0 0 0-2.506-3.783 3.988 3.988 0 0 0-1.591-.319c-.563 0-1.092.106-1.586.319a4.089 4.089 0 0 0-1.302.885 4.16 4.16 0 0 0-.885 1.307 4.046 4.046 0 0 0-.323 1.591c-.004.56.101 1.089.313 1.586.212.494.505.928.88 1.302.378.375.814.67 1.307.885a4.03 4.03 0 0 0 1.596.319Z"/></svg>