<svg xmlns="http://www.w3.org/2000/svg" width="405" height="134" fill="none"><g clip-path="url(#a)"><path fill="#2C2C2C" d="M.305 104V37.4h28.8l21.87 46.89 22.5-46.89h27.54V104h-19.53V57.74L59.525 104h-18.99l-21.87-47.16V104H.305Zm116.91 0V37.4h40.86c19.53 0 36.9 8.19 36.9 32.76s-17.64 33.84-36.9 33.84h-40.86Zm19.53-15.39h21.51c13.86 0 17.1-8.01 17.1-18.18 0-9.18-3.24-17.19-17.28-17.19h-21.33v35.37Zm90.63-21.51h26.55c6.75 0 9.63-1.8 9.63-7.02 0-5.31-2.88-7.02-9.63-7.02h-26.55V67.1Zm-19.26 36.9V37.4h46.53c17.28 0 27.99 5.49 27.99 22.14 0 10.62-4.14 16.56-12.51 19.71l13.59 24.75h-20.7l-12.33-22.14h-23.31V104h-19.26Zm89.55 0V37.4h21.78l37.44 40.41V37.4h18.81V104h-19.26l-39.96-42.75V104h-18.81Z"/><path stroke="#2C2C2C" stroke-width="2" d="M391 27c7.18 0 13-5.82 13-13s-5.82-13-13-13-13 5.82-13 13 5.82 13 13 13Z"/><path fill="#2C2C2C" d="M388.791 13.26h4.13c1.05 0 1.498-.28 1.498-1.092 0-.826-.448-1.092-1.498-1.092h-4.13v2.184ZM385.795 19V8.64h7.238c2.688 0 4.354.854 4.354 3.444 0 1.652-.644 2.576-1.946 3.066l2.114 3.85h-3.22l-1.918-3.444h-3.626V19h-2.996ZM379 121H206v13h173v-13Z"/></g><defs><clipPath id="a"><path fill="#fff" d="M0 0h405v134H0z"/></clipPath></defs></svg>