<svg xmlns="http://www.w3.org/2000/svg" width="95" height="33" fill="none"><mask id="a" width="95" height="33" x="0" y="0" maskUnits="userSpaceOnUse" style="mask-type:luminance"><path fill="#fff" d="M95 .5H0v32h95V.5Z"/></mask><g fill="#2C2C2C" mask="url(#a)"><path d="M4.896 31.848a54.169 54.169 0 0 1-1.938-3.366 30.832 30.832 0 0 1-1.564-3.638 28.254 28.254 0 0 1-1.02-4.08A26.695 26.695 0 0 1 0 16.174c0-2.743.42-5.44 1.258-8.092A31.935 31.935 0 0 1 4.896.5h3.162A34.973 34.973 0 0 0 4.93 8.048c-.703 2.561-1.054 5.27-1.054 8.126s.34 5.576 1.02 8.16c.68 2.584 1.734 5.089 3.162 7.514H4.896Zm5.484-30.77h10.065c1.859 0 3.468.317 4.828.952 1.36.635 2.47 1.507 3.332 2.618.861 1.088 1.496 2.369 1.904 3.842.43 1.473.646 3.049.646 4.726s-.215 3.253-.646 4.726c-.408 1.473-1.043 2.765-1.904 3.876-.861 1.088-1.972 1.95-3.332 2.584-1.36.635-2.97.952-4.828.952H10.38V1.078Zm4.25 20.808h4.183c1.655 0 3.003-.215 4.046-.646 1.065-.453 1.893-1.065 2.482-1.836.612-.793 1.02-1.711 1.224-2.754.227-1.065.34-2.21.34-3.434 0-1.224-.113-2.357-.34-3.4-.204-1.065-.612-1.983-1.224-2.754-.59-.793-1.417-1.405-2.482-1.836-1.043-.453-2.391-.68-4.046-.68H14.63v17.34ZM34.918 1.078H51.68V4.75H39.168v6.358H50.15v3.468H39.168v10.778h-4.25V1.078Zm26.478 14.756L52.284 1.078h4.93l6.426 10.88 6.324-10.88h4.76l-9.078 14.756v9.52h-4.25v-9.52Z"/><path d="M77.425.5a41.057 41.057 0 0 1 1.904 3.4c.59 1.156 1.1 2.38 1.53 3.672a24.59 24.59 0 0 1 1.054 4.046c.272 1.428.408 2.958.408 4.59 0 2.743-.43 5.44-1.292 8.092a30.362 30.362 0 0 1-3.604 7.548h-3.162a33.243 33.243 0 0 0 3.094-7.48c.725-2.584 1.088-5.304 1.088-8.16s-.34-5.576-1.02-8.16c-.68-2.584-1.734-5.1-3.162-7.548h3.162Zm14.989 5.433c-.048.288-.14.548-.276.78a2.206 2.206 0 0 1-.468.576c-.184.16-.396.284-.636.372-.232.08-.48.12-.744.12-.384 0-.732-.068-1.044-.204a2.395 2.395 0 0 1-.804-.564 2.615 2.615 0 0 1-.516-.864 3.187 3.187 0 0 1-.18-1.08c0-.36.056-.696.168-1.008.12-.32.288-.592.504-.816.216-.232.48-.416.792-.552a2.617 2.617 0 0 1 1.056-.204c.552 0 1.024.156 1.416.468.4.304.64.752.72 1.344h-.816a1.256 1.256 0 0 0-.456-.744c-.232-.192-.52-.288-.864-.288-.256 0-.48.048-.672.144a1.545 1.545 0 0 0-.492.384c-.128.16-.228.352-.3.576a2.44 2.44 0 0 0-.096.696c0 .264.036.512.108.744.072.232.176.436.312.612.144.176.312.316.504.42.2.104.42.156.66.156.36 0 .656-.1.888-.3.232-.2.368-.456.408-.768h.828Zm1.164-.864c0-.544-.088-1.044-.264-1.5a3.526 3.526 0 0 0-.732-1.176 3.227 3.227 0 0 0-1.092-.756 3.285 3.285 0 0 0-1.344-.276c-.488 0-.944.092-1.368.276-.416.176-.78.428-1.092.756-.312.328-.556.72-.732 1.176a4.132 4.132 0 0 0-.264 1.5c0 .512.08.992.24 1.44.16.448.388.84.684 1.176.304.336.668.604 1.092.804.424.192.904.288 1.44.288.48 0 .928-.088 1.344-.264.416-.184.78-.44 1.092-.768.312-.328.556-.716.732-1.164.176-.456.264-.96.264-1.512Zm.96 0c0 .672-.12 1.284-.36 1.836a4.186 4.186 0 0 1-.96 1.416c-.4.392-.868.696-1.404.912a4.363 4.363 0 0 1-1.668.324 4.651 4.651 0 0 1-1.788-.336 4.34 4.34 0 0 1-1.392-.948 4.489 4.489 0 0 1-.912-1.416 4.863 4.863 0 0 1-.324-1.788c0-.672.116-1.284.348-1.836a4.43 4.43 0 0 1 .96-1.416A4.484 4.484 0 0 1 90.146.581c.584 0 1.14.108 1.668.324.536.216 1.004.52 1.404.912.408.392.728.864.96 1.416.24.552.36 1.164.36 1.836Z"/></g></svg>