<svg xmlns="http://www.w3.org/2000/svg" width="64" height="64" fill="none"><path fill="#fff" d="M0 0h64v64H0z"/><path fill="#000" d="M23.025 21.26c0 1.41.353 2.55 1.058 3.421.705.83 1.68 1.493 2.924 1.991 1.244.456 2.612.85 4.105 1.182 1.535.29 3.11.602 4.728.933 1.618.29 3.173.705 4.666 1.245 1.535.497 2.903 1.202 4.106 2.115 1.244.87 2.219 2.011 2.924 3.421.746 1.41 1.12 3.194 1.12 5.35 0 2.779-.706 5.143-2.116 7.092-1.368 1.95-3.255 3.422-5.66 4.417-2.406.995-5.164 1.493-8.275 1.493-3.11 0-5.889-.477-8.336-1.43-2.405-.955-4.417-2.406-6.034-4.355-1.576-1.95-2.654-4.397-3.235-7.341h7.279c.622 2.405 1.804 4.25 3.546 5.536 1.741 1.245 4.022 1.867 6.842 1.867 2.904 0 5.102-.58 6.595-1.742 1.493-1.161 2.24-2.696 2.24-4.604 0-1.493-.353-2.695-1.058-3.608-.705-.954-1.68-1.68-2.924-2.177-1.244-.54-2.634-.975-4.168-1.307a112.34 112.34 0 0 0-4.666-1.057 43.92 43.92 0 0 1-4.728-1.244 17.123 17.123 0 0 1-4.106-1.991c-1.202-.871-2.177-1.99-2.924-3.36-.704-1.368-1.057-3.13-1.057-5.287a10.5 10.5 0 0 1 1.742-5.848c1.161-1.825 2.84-3.276 5.039-4.355C24.892 10.54 27.629 10 30.863 10c2.78 0 5.33.477 7.652 1.43 2.364.913 4.334 2.344 5.91 4.293 1.576 1.908 2.613 4.417 3.11 7.528h-7.402c-.58-2.613-1.68-4.52-3.297-5.724-1.618-1.202-3.67-1.804-6.16-1.804-2.405 0-4.292.519-5.66 1.556-1.327.995-1.991 2.322-1.991 3.98Zm24.11-10.24a.584.584 0 0 1 .285-.497.557.557 0 0 1 .29-.076.55.55 0 0 1 .446.22.51.51 0 0 1 .095.23h-.234a.254.254 0 0 0-.108-.162.332.332 0 0 0-.2-.064.336.336 0 0 0-.176.047.361.361 0 0 0-.126.127.337.337 0 0 0-.048.176c0 .064.016.123.048.175a.36.36 0 0 0 .126.127.336.336 0 0 0 .176.047.29.29 0 0 0 .19-.062.276.276 0 0 0 .098-.164h.234a.514.514 0 0 1-.522.45.556.556 0 0 1-.289-.077.583.583 0 0 1-.208-.207.556.556 0 0 1-.077-.29Zm.565 1.021a.999.999 0 0 1-.722-.298 1.053 1.053 0 0 1-.22-.326.98.98 0 0 1-.079-.396 1.005 1.005 0 0 1 .3-.721 1.02 1.02 0 0 1 .72-.3.993.993 0 0 1 .722.3 1.028 1.028 0 0 1 .3.72.98.98 0 0 1-.08.397 1.038 1.038 0 0 1-.544.545.999.999 0 0 1-.397.08Zm0-.224a.782.782 0 0 0 .564-.233.77.77 0 0 0 .232-.563.796.796 0 1 0-.796.796Z"/></svg>